# xmcd CD database file
# Copyright (C) 1993-1998 Ti Kan
# 
# Track frame offsets:
#     150
#     15867
#     29220
#     43740
#     57667
#     71577
#     86307
#     102257
#     116632
#     130577
#     145407
#     161220
# 
# Disc length: 2319 seconds
# 
# Revision: 1
# Processed by: cddbd v1.4b41PL1 Copyright (c) Steve Scherf et al.
# Submitted via: DiscPlay 4.0.4
# 
DISCID=a7090d0c
DTITLE=Bessie Smith - American Legends
DYEAR=1900
DGENRE=
TTITLE0='Taint Nobody's Business
TTITLE1=Baby, Won't You Please Come Home
TTITLE2=St. Louis Blues
TTITLE3=Reckless Blues
TTITLE4=Sobbin' Hearted Blues
TTITLE5=Cold In Hand Blues
TTITLE6=You've Been A Good Old Wagon
TTITLE7=I Ain't Got Nobody
TTITLE8=Sing, Sing Prison Blues
TTITLE9=Follow The Deal On Down
TTITLE10=Nobody Can Bake A Jelly Roll Like Mine
TTITLE11=I'm Wild About That Thing
EXTD=
EXTT0=
EXTT1=
EXTT2=
EXTT3=
EXTT4=
EXTT5=
EXTT6=
EXTT7=
EXTT8=
EXTT9=
EXTT10=
EXTT11=
PLAYORDER=
